# xmcd
#
# Track frame offsets:
#	150
#	17624
#	37519
#	58943
#	77181
#	94418
#	108693
#	130124
#	150923
#	173107
#	189503
#	202193
#	225970
#
# Disc length: 3080 seconds
#
# Revision: 1
# Processed by: cddbd v1.4PL0 Copyright (c) Steve Scherf et al.
# Submitted via: audiograbber 1.80
#
DISCID=9e0c060d
DTITLE=Macy Gray - The ID
DYEAR=1900
DGENRE=
TTITLE0=Relating To A Psychopath
TTITLE1=Boo
TTITLE2=Sexual Revolution
TTITLE3=Hey Young World Part 2 (feat. Slick Rick)
TTITLE4=Sweet Baby (feat. Erykah Badu)
TTITLE5=Harry
TTITLE6=Gimme All Your Lovin' Or I Will Kill You
TTITLE7=Don't Come Around (feat. Sunshine Anderson)
TTITLE8=My Nutmeg Phantasy (feat. Angie Stone and Mos Def)
TTITLE9=Freak Like Me
TTITLE10=Oblivion
TTITLE11=Forgiveness
TTITLE12=Blowin' Up Your Speakers
EXTD=
EXTT0=
EXTT1=
EXTT2=
EXTT3=
EXTT4=
EXTT5=
EXTT6=
EXTT7=
EXTT8=
EXTT9=
EXTT10=
EXTT11=
EXTT12=
PLAYORDER=
